<svg width="256" height="256" version="1.1" viewBox="0 0 67.733 67.733" xml:space="preserve" xmlns="http://www.w3.org/2000/svg"><rect width="67.733" height="67.733" ry="14.633" fill="#585e71"/><g stroke-width="2.5"><path transform="translate(-.68088 4.4261)" d="m23.057 32.963h11.274v14.052h-11.274z" fill="#c4c4c4" stroke-linecap="square" stroke-linejoin="round" stroke-width=".21337"/><g transform="translate(-.68088 4.4261)" fill="#1b1714" stroke-width="2.5"><path d="m30.113 35.221v7.7969h1.4766v-7.7969z" color="#000000" style="-inkscape-stroke:none"/><path d="m27.455 35.221v7.7969h1.4766v-7.7969z" color="#000000"/><path d="m24.797 35.221v7.7969h1.4766v-7.7969z" color="#000000" style="-inkscape-stroke:none"/></g><path d="m33.867 15.883a29.526 17.984 0 0 0-29.525 17.984 29.526 17.984 0 0 0 29.525 17.984z" fill="none" stroke="#1b1714"/><path d="m33.867 15.883v35.968a29.526 17.984 0 0 0 12.462-1.6857v-12.321h16.33a29.526 17.984 0 0 0 0.73277-3.9775 29.526 17.984 0 0 0-29.525-17.984z" fill="#c4c4c4"/><path d="m35.117 51.834c15.806-0.40802 28.275-8.3315 28.275-17.967-1.15e-4 -9.9322-13.219-17.984-29.525-17.984v20.562" fill="none" stroke="#828282"/><path d="m33.867 51.784v-15.339h-11.679" fill="none" stroke="#1b1714" stroke-linecap="round" stroke-linejoin="round" stroke-width="2.5"/><g transform="translate(-.68088 4.4261)" fill="#1b1714"><path x="55.897495" y="25.019382" width="4.8222885" height="4.1720195" d="m56.427 25.019h3.764a0.52917 0.52917 45 0 1 0.52917 0.52917v3.1137a0.52917 0.52917 135 0 1-0.52917 0.52917h-3.764a0.52917 0.52917 45 0 1-0.52917-0.52917v-3.1137a0.52917 0.52917 135 0 1 0.52917-0.52917z"/><path x="49.722633" y="25.019382" width="4.8222885" height="4.1720195" d="m50.252 25.019h3.764a0.52917 0.52917 45 0 1 0.52917 0.52917v3.1137a0.52917 0.52917 135 0 1-0.52917 0.52917h-3.764a0.52917 0.52917 45 0 1-0.52917-0.52917v-3.1137a0.52917 0.52917 135 0 1 0.52917-0.52917z"/><path x="43.547768" y="25.019382" width="4.8222885" height="4.1720195" d="m44.077 25.019h3.764a0.52917 0.52917 45 0 1 0.52917 0.52917v3.1137a0.52917 0.52917 135 0 1-0.52917 0.52917h-3.764a0.52917 0.52917 45 0 1-0.52917-0.52917v-3.1137a0.52917 0.52917 135 0 1 0.52917-0.52917z"/></g><g transform="translate(-.68088 4.5477)" fill="#1b1714"><path d="m37.092 27.539c0.19853 0.8891 0.88004 1.5838 1.7522 1.7864 0.02847 0.0066 0.05168-0.01232 0.05168-0.04154v-1.7437a0.052917 0.052917 45 0 0-0.05292-0.05292h-1.709c-0.02923 0-0.04832 0.02324-0.04195 0.05177zm2.733 0.0012v1.7442c0 0.02923 0.02322 0.04817 0.05169 0.04159 0.87313-0.20189 1.5556-0.89703 1.7543-1.7869 0.0064-0.02852-0.01273-0.05177-0.04195-0.05177h-1.7111a0.052917 0.052917 135 0 0-0.05292 0.05292z"/><path d="m39.308 24.641c-1.1971 0.02788-2.1791 0.97915-2.2672 2.1965-0.0021 0.02918 0.02044 0.05262 0.04966 0.05231l4.5388-0.04899c0.02922-3.15e-4 0.05128-0.02421 0.04857-0.05331-0.11159-1.1965-1.0853-2.1195-2.264-2.1465-0.02925-6.7e-4 -0.05297-6.06e-4 -0.05297-6.04e-4z"/></g></g><g display="none" stroke-width="2.5"><path transform="translate(-.68088 4.4261)" d="m23.057 32.963h11.274v14.052h-11.274z" display="inline" fill="#c4c4c4" stroke-linecap="square" stroke-linejoin="round" stroke-width=".21337"/><g transform="translate(-.68088 4.4261)" display="inline" fill="#1b1714" stroke-width="2.5"><path d="m30.113 35.221v7.7969h1.4766v-7.7969z" color="#000000" style="-inkscape-stroke:none"/><path d="m27.455 35.221v7.7969h1.4766v-7.7969z" color="#000000"/><path d="m24.797 35.221v7.7969h1.4766v-7.7969z" color="#000000" style="-inkscape-stroke:none"/></g><path d="m33.867 15.883a29.526 17.984 0 0 0-29.525 17.984 29.526 17.984 0 0 0 29.525 17.984z" fill="none" stroke="#e4e1dc"/><path d="m33.867 15.883v35.968a29.526 17.984 0 0 0 12.462-1.6857v-12.321h16.33a29.526 17.984 0 0 0 0.73277-3.9775 29.526 17.984 0 0 0-29.525-17.984z" display="inline" fill="#c4c4c4"/><path d="m35.117 51.834c15.806-0.40802 28.275-8.3315 28.275-17.967-1.15e-4 -9.9322-13.219-17.984-29.525-17.984v20.562" fill="none" stroke="#828282"/><path d="m33.867 51.784v-15.339h-11.679" fill="none" stroke="#e4e1dc" stroke-linecap="round" stroke-linejoin="round" stroke-width="2.5"/><g transform="translate(-.68088 4.4261)" fill="#1b1714"><path x="55.897495" y="25.019382" width="4.8222885" height="4.1720195" d="m56.427 25.019h3.764a0.52917 0.52917 45 0 1 0.52917 0.52917v3.1137a0.52917 0.52917 135 0 1-0.52917 0.52917h-3.764a0.52917 0.52917 45 0 1-0.52917-0.52917v-3.1137a0.52917 0.52917 135 0 1 0.52917-0.52917z"/><path x="49.722633" y="25.019382" width="4.8222885" height="4.1720195" d="m50.252 25.019h3.764a0.52917 0.52917 45 0 1 0.52917 0.52917v3.1137a0.52917 0.52917 135 0 1-0.52917 0.52917h-3.764a0.52917 0.52917 45 0 1-0.52917-0.52917v-3.1137a0.52917 0.52917 135 0 1 0.52917-0.52917z"/><path x="43.547768" y="25.019382" width="4.8222885" height="4.1720195" d="m44.077 25.019h3.764a0.52917 0.52917 45 0 1 0.52917 0.52917v3.1137a0.52917 0.52917 135 0 1-0.52917 0.52917h-3.764a0.52917 0.52917 45 0 1-0.52917-0.52917v-3.1137a0.52917 0.52917 135 0 1 0.52917-0.52917z"/></g><g transform="translate(-.68088 4.5477)" fill="#1b1714"><path d="m37.092 27.539c0.19853 0.8891 0.88004 1.5838 1.7522 1.7864 0.02847 0.0066 0.05168-0.01232 0.05168-0.04154v-1.7437a0.052917 0.052917 45 0 0-0.05292-0.05292h-1.709c-0.02923 0-0.04832 0.02324-0.04195 0.05177zm2.733 0.0012v1.7442c0 0.02923 0.02322 0.04817 0.05169 0.04159 0.87313-0.20189 1.5556-0.89703 1.7543-1.7869 0.0064-0.02852-0.01273-0.05177-0.04195-0.05177h-1.7111a0.052917 0.052917 135 0 0-0.05292 0.05292z" display="inline"/><path d="m39.308 24.641c-1.1971 0.02788-2.1791 0.97915-2.2672 2.1965-0.0021 0.02918 0.02044 0.05262 0.04966 0.05231l4.5388-0.04899c0.02922-3.15e-4 0.05128-0.02421 0.04857-0.05331-0.11159-1.1965-1.0853-2.1195-2.264-2.1465-0.02925-6.7e-4 -0.05297-6.06e-4 -0.05297-6.04e-4z" display="inline"/></g></g></svg>
