<?xml version="1.0" encoding="UTF-8" standalone="no"?>
<!-- Created with Inkscape (http://www.inkscape.org/) -->

<svg
   width="256"
   height="256"
   viewBox="0 0 67.733332 67.733333"
   version="1.1"
   id="svg5"
   xml:space="preserve"
   inkscape:version="1.2 (1:1.2.1+202207142221+cd75a1ee6d)"
   sodipodi:docname="ink_logo.svg"
   xmlns:inkscape="http://www.inkscape.org/namespaces/inkscape"
   xmlns:sodipodi="http://sodipodi.sourceforge.net/DTD/sodipodi-0.dtd"
   xmlns="http://www.w3.org/2000/svg"
   xmlns:svg="http://www.w3.org/2000/svg"><sodipodi:namedview
     id="namedview7"
     pagecolor="#505050"
     bordercolor="#eeeeee"
     borderopacity="1"
     inkscape:showpageshadow="0"
     inkscape:pageopacity="0"
     inkscape:pagecheckerboard="0"
     inkscape:deskcolor="#505050"
     inkscape:document-units="mm"
     showgrid="false"
     inkscape:zoom="2.0027761"
     inkscape:cx="-19.972277"
     inkscape:cy="157.28169"
     inkscape:window-width="1920"
     inkscape:window-height="947"
     inkscape:window-x="0"
     inkscape:window-y="32"
     inkscape:window-maximized="1"
     inkscape:current-layer="g288" /><defs
     id="defs2"><inkscape:path-effect
       effect="fillet_chamfer"
       id="path-effect308"
       is_visible="true"
       lpeversion="1"
       nodesatellites_param="F,0,0,1,0,0.052916667,0,1 @ F,0,0,1,0,0.052916667,0,1 @ F,0,0,1,0,0.052916667,0,1 @ F,0,0,1,0,0.052916667,0,1"
       unit="px"
       method="auto"
       mode="F"
       radius="0.2"
       chamfer_steps="1"
       flexible="false"
       use_knot_distance="true"
       apply_no_radius="true"
       apply_with_radius="true"
       only_selected="false"
       hide_knots="false" /><inkscape:path-effect
       effect="fillet_chamfer"
       id="path-effect304"
       is_visible="true"
       lpeversion="1"
       nodesatellites_param="F,0,0,1,0,0.052916667,0,1 @ F,0,0,1,0,0.052916667,0,1 @ F,0,0,1,0,0.052916667,0,1 | F,0,0,1,0,0.052916667,0,1 @ F,0,0,1,0,0.052916667,0,1 @ F,0,0,1,0,0.052916667,0,1"
       unit="px"
       method="auto"
       mode="F"
       radius="0.2"
       chamfer_steps="1"
       flexible="false"
       use_knot_distance="true"
       apply_no_radius="true"
       apply_with_radius="true"
       only_selected="false"
       hide_knots="false" /><inkscape:path-effect
       effect="fillet_chamfer"
       id="path-effect300"
       is_visible="true"
       lpeversion="1"
       nodesatellites_param="F,0,0,1,0,0.52916667,0,1 @ F,0,0,1,0,0.52916667,0,1 @ F,0,0,1,0,0.52916667,0,1 @ F,0,0,1,0,0.52916667,0,1"
       unit="px"
       method="auto"
       mode="F"
       radius="2"
       chamfer_steps="1"
       flexible="false"
       use_knot_distance="true"
       apply_no_radius="true"
       apply_with_radius="true"
       only_selected="false"
       hide_knots="false" /><inkscape:path-effect
       effect="fillet_chamfer"
       id="path-effect296"
       is_visible="true"
       lpeversion="1"
       nodesatellites_param="F,0,0,1,0,0.52916667,0,1 @ F,0,0,1,0,0.52916667,0,1 @ F,0,0,1,0,0.52916667,0,1 @ F,0,0,1,0,0.52916667,0,1"
       unit="px"
       method="auto"
       mode="F"
       radius="2"
       chamfer_steps="1"
       flexible="false"
       use_knot_distance="true"
       apply_no_radius="true"
       apply_with_radius="true"
       only_selected="false"
       hide_knots="false" /><inkscape:path-effect
       effect="fillet_chamfer"
       id="path-effect292"
       is_visible="true"
       lpeversion="1"
       nodesatellites_param="F,0,0,1,0,0.52916667,0,1 @ F,0,0,1,0,0.52916667,0,1 @ F,0,0,1,0,0.52916667,0,1 @ F,0,0,1,0,0.52916667,0,1"
       unit="px"
       method="auto"
       mode="F"
       radius="2"
       chamfer_steps="1"
       flexible="false"
       use_knot_distance="true"
       apply_no_radius="true"
       apply_with_radius="true"
       only_selected="false"
       hide_knots="false" /><inkscape:path-effect
       effect="fillet_chamfer"
       id="path-effect6983"
       is_visible="true"
       lpeversion="1"
       nodesatellites_param="F,0,0,1,0,2.6458333,0,1 @ F,0,0,1,0,2.6458333,0,1 @ F,0,0,1,0,2.6458333,0,1 @ F,0,0,1,0,2.6458333,0,1 @ F,0,0,1,0,2.6458333,0,1 @ F,0,0,1,0,2.6458333,0,1 @ F,0,0,1,0,2.6458333,0,1 @ F,0,0,1,0,2.6458333,0,1"
       unit="px"
       method="auto"
       mode="F"
       radius="10"
       chamfer_steps="1"
       flexible="false"
       use_knot_distance="true"
       apply_no_radius="true"
       apply_with_radius="true"
       only_selected="false"
       hide_knots="false" /><inkscape:path-effect
       effect="fillet_chamfer"
       id="path-effect6243"
       is_visible="true"
       lpeversion="1"
       nodesatellites_param="F,0,0,1,0,0,0,1 @ F,0,0,1,0,8.4666667,0,1"
       unit="px"
       method="auto"
       mode="F"
       radius="32"
       chamfer_steps="1"
       flexible="false"
       use_knot_distance="true"
       apply_no_radius="true"
       apply_with_radius="true"
       only_selected="false"
       hide_knots="false" /><inkscape:path-effect
       effect="fillet_chamfer"
       id="path-effect2716"
       is_visible="true"
       lpeversion="1"
       nodesatellites_param="F,0,0,1,0,0.052916667,0,1 @ F,0,0,1,0,0.052916667,0,1 @ F,0,0,1,0,0.052916667,0,1 @ F,0,0,1,0,0.052916667,0,1"
       unit="px"
       method="auto"
       mode="F"
       radius="0.2"
       chamfer_steps="1"
       flexible="false"
       use_knot_distance="true"
       apply_no_radius="true"
       apply_with_radius="true"
       only_selected="false"
       hide_knots="false" /><inkscape:path-effect
       effect="fillet_chamfer"
       id="path-effect1988"
       is_visible="true"
       lpeversion="1"
       nodesatellites_param="F,0,0,1,0,0.052916667,0,1 @ F,0,0,1,0,0.052916667,0,1 @ F,0,0,1,0,0.052916667,0,1 | F,0,0,1,0,0.052916667,0,1 @ F,0,0,1,0,0.052916667,0,1 @ F,0,0,1,0,0.052916667,0,1"
       unit="px"
       method="auto"
       mode="F"
       radius="0.2"
       chamfer_steps="1"
       flexible="false"
       use_knot_distance="true"
       apply_no_radius="true"
       apply_with_radius="true"
       only_selected="false"
       hide_knots="false" /><inkscape:path-effect
       effect="fillet_chamfer"
       id="path-effect15104"
       is_visible="true"
       lpeversion="1"
       nodesatellites_param="F,0,0,1,0,0.52916667,0,1 @ F,0,0,1,0,0.52916667,0,1 @ F,0,0,1,0,0.52916667,0,1 @ F,0,0,1,0,0.52916667,0,1"
       unit="px"
       method="auto"
       mode="F"
       radius="2"
       chamfer_steps="1"
       flexible="false"
       use_knot_distance="true"
       apply_no_radius="true"
       apply_with_radius="true"
       only_selected="false"
       hide_knots="false" /><inkscape:path-effect
       effect="fillet_chamfer"
       id="path-effect14376"
       is_visible="true"
       lpeversion="1"
       nodesatellites_param="F,0,0,1,0,0.52916667,0,1 @ F,0,0,1,0,0.52916667,0,1 @ F,0,0,1,0,0.52916667,0,1 @ F,0,0,1,0,0.52916667,0,1"
       unit="px"
       method="auto"
       mode="F"
       radius="2"
       chamfer_steps="1"
       flexible="false"
       use_knot_distance="true"
       apply_no_radius="true"
       apply_with_radius="true"
       only_selected="false"
       hide_knots="false" /><inkscape:path-effect
       effect="fillet_chamfer"
       id="path-effect13648"
       is_visible="true"
       lpeversion="1"
       nodesatellites_param="F,0,0,1,0,0.52916667,0,1 @ F,0,0,1,0,0.52916667,0,1 @ F,0,0,1,0,0.52916667,0,1 @ F,0,0,1,0,0.52916667,0,1"
       unit="px"
       method="auto"
       mode="F"
       radius="2"
       chamfer_steps="1"
       flexible="false"
       use_knot_distance="true"
       apply_no_radius="true"
       apply_with_radius="true"
       only_selected="false"
       hide_knots="false" /></defs><g
     inkscape:groupmode="layer"
     id="layer2"
     inkscape:label="dachsberg-logo"
     style="display:none;stroke-width:2.5;stroke-dasharray:none"
     sodipodi:insensitive="true"><path
       id="rect4868"
       style="display:inline;fill:#c4c4c4;stroke-width:0.213374;stroke-linecap:square;stroke-linejoin:round;stroke-dasharray:none"
       inkscape:label="wall-left"
       transform="translate(-0.68088222,4.4261468)"
       d="M 23.05677,32.963394 H 34.330317 V 47.015802 H 23.05677 Z" /><g
       id="g5723"
       inkscape:label="wall-left-windows"
       style="display:inline;stroke:#1b1714;stroke-width:2.5;stroke-dasharray:none;stroke-opacity:1"
       transform="translate(-0.68088222,4.4261468)"><path
         style="color:#000000;fill:#1b1714;stroke:none;stroke-linecap:square;stroke-linejoin:round;-inkscape-stroke:none"
         d="m 30.113281,35.220703 v 0.738281 6.320313 0.738281 h 1.476563 v -0.738281 -6.320313 -0.738281 z"
         id="path5714"
         inkscape:label="right" /><path
         style="color:#000000;fill:#1b1714;stroke:none;stroke-linecap:square;stroke-linejoin:round"
         d="m 27.455078,35.220703 v 0.738281 6.320313 0.738281 h 1.476563 v -0.738281 -6.320313 -0.738281 z"
         id="path5718"
         inkscape:label="center" /><path
         style="color:#000000;fill:#1b1714;stroke:none;stroke-linecap:square;stroke-linejoin:round;-inkscape-stroke:none"
         d="m 24.796875,35.220703 v 0.738281 6.320313 0.738281 h 1.476562 v -0.738281 -6.320313 -0.738281 z"
         id="path5712"
         inkscape:label="left" /></g><path
       id="path232"
       style="fill:none;stroke:#1b1714;stroke-opacity:1"
       d="M 33.866667,15.882751 A 29.525507,17.984043 0 0 0 4.3413371,33.866667 29.525507,17.984043 0 0 0 33.866667,51.850582 Z"
       inkscape:label="oval-right" /><path
       id="path5818"
       style="display:inline;fill:#c4c4c4;fill-opacity:1;stroke:none;stroke-width:2.5;stroke-dasharray:none;stroke-opacity:1"
       inkscape:label="oval-left-fill"
       d="M 33.866667,15.882751 V 51.850582 A 29.525507,17.984043 0 0 0 46.328955,50.164897 V 37.844202 H 62.659224 A 29.525507,17.984043 0 0 0 63.391996,33.866667 29.525507,17.984043 0 0 0 33.866667,15.882751 Z" /><path
       id="path6681"
       style="fill:none;stroke:#828282;stroke-opacity:1"
       inkscape:label="oval-left"
       d="M 35.11672,51.834045 C 50.922401,51.426021 63.391525,43.50258 63.391996,33.866667 63.391881,23.934446 50.173003,15.882811 33.866667,15.882751 v 20.562053"
       sodipodi:nodetypes="cccc" /><path
       style="fill:none;fill-opacity:1;stroke:#1b1714;stroke-width:2.5;stroke-linecap:round;stroke-linejoin:round;stroke-dasharray:none;stroke-opacity:1"
       d="M 33.866667,51.784139 V 36.444804 H 22.187846"
       id="path5999"
       sodipodi:nodetypes="ccc"
       inkscape:label="oval-right-g" /><g
       id="g6865"
       inkscape:label="windows"
       style="fill:#1b1714;fill-opacity:1"
       transform="translate(-0.68088222,4.4261468)"><path
         style="fill:#1b1714;fill-opacity:1;stroke:none;stroke-width:0.214311;stroke-linecap:square;stroke-linejoin:round;stroke-dasharray:none;stroke-opacity:1"
         id="rect6796"
         width="4.8222885"
         height="4.1720195"
         x="55.897495"
         y="25.019382"
         inkscape:label="rect6796"
         inkscape:path-effect="#path-effect13648"
         d="m 56.426662,25.019382 h 3.763955 a 0.52916667,0.52916667 45 0 1 0.529167,0.529167 v 3.113686 a 0.52916667,0.52916667 135 0 1 -0.529167,0.529167 h -3.763955 a 0.52916667,0.52916667 45 0 1 -0.529167,-0.529167 v -3.113686 a 0.52916667,0.52916667 135 0 1 0.529167,-0.529167 z"
         sodipodi:type="rect" /><path
         style="fill:#1b1714;fill-opacity:1;stroke:none;stroke-width:0.214311;stroke-linecap:square;stroke-linejoin:round;stroke-dasharray:none;stroke-opacity:1"
         id="rect6796-4"
         width="4.8222885"
         height="4.1720195"
         x="49.722633"
         y="25.019382"
         inkscape:label="center"
         inkscape:path-effect="#path-effect14376"
         d="m 50.2518,25.019382 h 3.763955 a 0.52916667,0.52916667 45 0 1 0.529167,0.529167 v 3.113686 a 0.52916667,0.52916667 135 0 1 -0.529167,0.529167 H 50.2518 a 0.52916667,0.52916667 45 0 1 -0.529167,-0.529167 l 0,-3.113686 A 0.52916667,0.52916667 135 0 1 50.2518,25.019382 Z"
         sodipodi:type="rect" /><path
         style="fill:#1b1714;fill-opacity:1;stroke:none;stroke-width:0.214311;stroke-linecap:square;stroke-linejoin:round;stroke-dasharray:none;stroke-opacity:1"
         id="rect6796-4-1"
         width="4.8222885"
         height="4.1720195"
         x="43.547768"
         y="25.019382"
         inkscape:label="left"
         inkscape:path-effect="#path-effect15104"
         d="m 44.076934,25.019382 h 3.763955 a 0.52916667,0.52916667 45 0 1 0.529167,0.529167 v 3.113686 a 0.52916667,0.52916667 135 0 1 -0.529167,0.529167 h -3.763955 a 0.52916667,0.52916667 45 0 1 -0.529166,-0.529167 v -3.113686 a 0.52916667,0.52916667 135 0 1 0.529166,-0.529167 z"
         sodipodi:type="rect" /></g><g
       id="g3083"
       inkscape:label="round-window"
       transform="translate(-0.68088222,4.5477348)"
       style="fill:#1b1714;fill-opacity:1"><path
         id="path1484"
         style="display:inline;fill:#1b1714;fill-opacity:1;stroke:none;stroke-width:0.2;stroke-linecap:square;stroke-linejoin:round;stroke-opacity:1"
         d="m 37.091696,27.538918 c 0.198529,0.889096 0.880042,1.583843 1.752228,1.786357 0.02847,0.0066 0.05168,-0.01232 0.05168,-0.04154 v -1.743665 a 0.05291667,0.05291667 45 0 0 -0.05292,-0.05292 l -1.709042,0 c -0.02923,0 -0.04832,0.02324 -0.04195,0.05177 z m 2.73305,0.0012 v 1.744182 c 0,0.02923 0.02322,0.04817 0.05169,0.04159 0.873132,-0.201891 1.555619,-0.897033 1.754289,-1.78692 0.0064,-0.02852 -0.01273,-0.05177 -0.04195,-0.05177 h -1.71111 a 0.05291667,0.05291667 135 0 0 -0.05292,0.05292 z"
         inkscape:path-effect="#path-effect1988"
         inkscape:original-d="m 37.080728,27.487151 a 2.3276148,2.3724985 0 0 0 1.814876,1.849499 v -1.849499 z m 2.744018,0 v 1.850016 a 2.3276148,2.3724985 0 0 0 1.816944,-1.850016 z"
         inkscape:label="lower" /><path
         id="path1551"
         style="display:inline;fill:#1b1714;fill-opacity:1;stroke:none;stroke-width:0.2;stroke-linecap:square;stroke-linejoin:round;stroke-opacity:1"
         d="m 39.308297,24.640925 c -1.197129,0.02788 -2.179125,0.979154 -2.267207,2.196483 -0.0021,0.02918 0.02044,0.05262 0.04966,0.05231 l 4.53885,-0.04899 c 0.02922,-3.15e-4 0.05128,-0.02421 0.04857,-0.05331 -0.111593,-1.196461 -1.085278,-2.119533 -2.263989,-2.146521 -0.02925,-6.7e-4 -0.05297,-6.06e-4 -0.05297,-6.04e-4 z"
         inkscape:path-effect="#path-effect2716"
         inkscape:original-d="m 39.361209,24.640296 a 2.3276148,2.3724985 0 0 0 -2.323373,2.249992 l 4.644678,-0.05013 a 2.3276148,2.3724985 0 0 0 -2.321305,-2.199866 z"
         inkscape:label="upper" /></g></g><g
     inkscape:groupmode="layer"
     id="g288"
     inkscape:label="dachsberg-logo-dark"
     style="display:inline;stroke-width:2.5;stroke-dasharray:none"><path
       id="path256"
       style="display:inline;fill:#c4c4c4;stroke-width:0.213374;stroke-linecap:square;stroke-linejoin:round;stroke-dasharray:none"
       inkscape:label="wall-left"
       transform="translate(-0.68088222,4.4261468)"
       d="M 23.05677,32.963394 H 34.330317 V 47.015802 H 23.05677 Z" /><g
       id="g264"
       inkscape:label="wall-left-windows"
       style="display:inline;stroke-width:2.5;stroke-dasharray:none;stroke:#1b1714;stroke-opacity:1"
       transform="translate(-0.68088222,4.4261468)"><path
         style="color:#000000;fill:#1b1714;stroke:none;stroke-linecap:square;stroke-linejoin:round;-inkscape-stroke:none"
         d="m 30.113281,35.220703 v 0.738281 6.320313 0.738281 h 1.476563 v -0.738281 -6.320313 -0.738281 z"
         id="path258"
         inkscape:label="right" /><path
         style="color:#000000;fill:#1b1714;stroke:none;stroke-linecap:square;stroke-linejoin:round"
         d="m 27.455078,35.220703 v 0.738281 6.320313 0.738281 h 1.476563 v -0.738281 -6.320313 -0.738281 z"
         id="path260"
         inkscape:label="center" /><path
         style="color:#000000;fill:#1b1714;stroke:none;stroke-linecap:square;stroke-linejoin:round;-inkscape-stroke:none"
         d="m 24.796875,35.220703 v 0.738281 6.320313 0.738281 h 1.476562 v -0.738281 -6.320313 -0.738281 z"
         id="path262"
         inkscape:label="left" /></g><path
       id="path266"
       style="fill:none;stroke:#e4e1dc;stroke-opacity:1"
       d="M 33.866667,15.882751 A 29.525507,17.984043 0 0 0 4.3413371,33.866667 29.525507,17.984043 0 0 0 33.866667,51.850582 Z"
       inkscape:label="oval-right" /><path
       id="path268"
       style="display:inline;fill:#c4c4c4;fill-opacity:1;stroke:none;stroke-width:2.5;stroke-dasharray:none;stroke-opacity:1"
       inkscape:label="oval-left-fill"
       d="M 33.866667,15.882751 V 51.850582 A 29.525507,17.984043 0 0 0 46.328955,50.164897 V 37.844202 H 62.659224 A 29.525507,17.984043 0 0 0 63.391996,33.866667 29.525507,17.984043 0 0 0 33.866667,15.882751 Z" /><path
       id="path270"
       style="fill:none;stroke:#828282;stroke-opacity:1"
       inkscape:label="oval-left"
       d="M 35.11672,51.834045 C 50.922401,51.426021 63.391525,43.50258 63.391996,33.866667 63.391881,23.934446 50.173003,15.882811 33.866667,15.882751 v 20.562053"
       sodipodi:nodetypes="cccc" /><path
       style="fill:none;fill-opacity:1;stroke:#e4e1dc;stroke-width:2.5;stroke-linecap:round;stroke-linejoin:round;stroke-dasharray:none;stroke-opacity:1"
       d="M 33.866667,51.784139 V 36.444804 H 22.187846"
       id="path272"
       sodipodi:nodetypes="ccc"
       inkscape:label="oval-right-g" /><g
       id="g280"
       inkscape:label="windows"
       style="fill:#1b1714;fill-opacity:1"
       transform="translate(-0.68088222,4.4261468)"><path
         style="fill:#1b1714;fill-opacity:1;stroke:none;stroke-width:0.214311;stroke-linecap:square;stroke-linejoin:round;stroke-dasharray:none;stroke-opacity:1"
         id="path274"
         width="4.8222885"
         height="4.1720195"
         x="55.897495"
         y="25.019382"
         inkscape:label="rect6796"
         inkscape:path-effect="#path-effect292"
         d="m 56.426662,25.019382 h 3.763955 a 0.52916667,0.52916667 45 0 1 0.529167,0.529167 v 3.113686 a 0.52916667,0.52916667 135 0 1 -0.529167,0.529167 h -3.763955 a 0.52916667,0.52916667 45 0 1 -0.529167,-0.529167 v -3.113686 a 0.52916667,0.52916667 135 0 1 0.529167,-0.529167 z"
         sodipodi:type="rect" /><path
         style="fill:#1b1714;fill-opacity:1;stroke:none;stroke-width:0.214311;stroke-linecap:square;stroke-linejoin:round;stroke-dasharray:none;stroke-opacity:1"
         id="path276"
         width="4.8222885"
         height="4.1720195"
         x="49.722633"
         y="25.019382"
         inkscape:label="center"
         inkscape:path-effect="#path-effect296"
         d="m 50.2518,25.019382 h 3.763955 a 0.52916667,0.52916667 45 0 1 0.529167,0.529167 v 3.113686 a 0.52916667,0.52916667 135 0 1 -0.529167,0.529167 H 50.2518 a 0.52916667,0.52916667 45 0 1 -0.529167,-0.529167 l 0,-3.113686 A 0.52916667,0.52916667 135 0 1 50.2518,25.019382 Z"
         sodipodi:type="rect" /><path
         style="fill:#1b1714;fill-opacity:1;stroke:none;stroke-width:0.214311;stroke-linecap:square;stroke-linejoin:round;stroke-dasharray:none;stroke-opacity:1"
         id="path278"
         width="4.8222885"
         height="4.1720195"
         x="43.547768"
         y="25.019382"
         inkscape:label="left"
         inkscape:path-effect="#path-effect300"
         d="m 44.076934,25.019382 h 3.763955 a 0.52916667,0.52916667 45 0 1 0.529167,0.529167 v 3.113686 a 0.52916667,0.52916667 135 0 1 -0.529167,0.529167 h -3.763955 a 0.52916667,0.52916667 45 0 1 -0.529166,-0.529167 v -3.113686 a 0.52916667,0.52916667 135 0 1 0.529166,-0.529167 z"
         sodipodi:type="rect" /></g><g
       id="g286"
       inkscape:label="round-window"
       transform="translate(-0.68088222,4.5477348)"
       style="fill:#1b1714;fill-opacity:1"><path
         id="path282"
         style="display:inline;fill:#1b1714;fill-opacity:1;stroke:none;stroke-width:0.2;stroke-linecap:square;stroke-linejoin:round;stroke-opacity:1"
         d="m 37.091696,27.538918 c 0.198529,0.889096 0.880042,1.583843 1.752228,1.786357 0.02847,0.0066 0.05168,-0.01232 0.05168,-0.04154 v -1.743665 a 0.05291667,0.05291667 45 0 0 -0.05292,-0.05292 l -1.709042,0 c -0.02923,0 -0.04832,0.02324 -0.04195,0.05177 z m 2.73305,0.0012 v 1.744182 c 0,0.02923 0.02322,0.04817 0.05169,0.04159 0.873132,-0.201891 1.555619,-0.897033 1.754289,-1.78692 0.0064,-0.02852 -0.01273,-0.05177 -0.04195,-0.05177 h -1.71111 a 0.05291667,0.05291667 135 0 0 -0.05292,0.05292 z"
         inkscape:path-effect="#path-effect304"
         inkscape:original-d="m 37.080728,27.487151 a 2.3276148,2.3724985 0 0 0 1.814876,1.849499 v -1.849499 z m 2.744018,0 v 1.850016 a 2.3276148,2.3724985 0 0 0 1.816944,-1.850016 z"
         inkscape:label="lower" /><path
         id="path284"
         style="display:inline;fill:#1b1714;fill-opacity:1;stroke:none;stroke-width:0.2;stroke-linecap:square;stroke-linejoin:round;stroke-opacity:1"
         d="m 39.308297,24.640925 c -1.197129,0.02788 -2.179125,0.979154 -2.267207,2.196483 -0.0021,0.02918 0.02044,0.05262 0.04966,0.05231 l 4.53885,-0.04899 c 0.02922,-3.15e-4 0.05128,-0.02421 0.04857,-0.05331 -0.111593,-1.196461 -1.085278,-2.119533 -2.263989,-2.146521 -0.02925,-6.7e-4 -0.05297,-6.06e-4 -0.05297,-6.04e-4 z"
         inkscape:path-effect="#path-effect308"
         inkscape:original-d="m 39.361209,24.640296 a 2.3276148,2.3724985 0 0 0 -2.323373,2.249992 l 4.644678,-0.05013 a 2.3276148,2.3724985 0 0 0 -2.321305,-2.199866 z"
         inkscape:label="upper" /></g></g></svg>
